<svg width="1728" height="1117" viewBox="0 0 1728 1117" fill="none" xmlns="http://www.w3.org/2000/svg">
<g clip-path="url(#clip0_1_4)">
<rect width="1728" height="1117" fill="#27262C"/>
<circle cx="-128" cy="559" r="457" fill="#4044ED"/>
<circle cx="38" cy="38" r="38" transform="matrix(1 0 0 -1 118 243)" fill="#93DFFF"/>
<path d="M2294.85 49.276C2269.4 101.98 2234.82 151.381 2191.1 195.102C2147.38 238.824 2097.98 273.403 2045.28 298.847L2294.85 49.276ZM2347.94 -177.187C2347.57 -146.572 2344.59 -115.984 2339.01 -85.7821L1910.22 343.012C1880.02 348.595 1849.43 351.572 1818.81 351.938L2347.94 -177.187ZM2327.62 -330.239C2333.96 -307.884 2338.81 -285.198 2342.19 -262.335L1733.66 346.193C1710.8 342.814 1688.12 337.957 1665.76 331.617L2327.62 -330.239ZM2276.03 -452.02C2286.36 -434.187 2295.59 -415.886 2303.7 -397.216L1598.78 307.7C1580.11 299.59 1561.81 290.364 1543.98 280.026L2276.03 -452.02ZM2201.89 -551.253C2215.44 -536.909 2228.05 -522 2239.72 -506.604L1489.4 243.715C1474 232.049 1459.09 219.439 1444.75 205.886L2201.89 -551.253ZM2107.78 -630.519C2124.02 -619.759 2139.8 -608.021 2155.04 -595.304L1400.7 159.043C1387.98 143.801 1376.24 128.019 1365.48 111.779L2107.78 -630.519ZM1992.17 -688.278C2011.84 -681.283 2031.19 -673.103 2050.1 -663.737L1332.26 54.1036C1322.9 35.1922 1314.72 15.8424 1307.72 -3.83432L1992.17 -688.278ZM1848.52 -718.009C1872.88 -716.371 1897.14 -713.079 1921.12 -708.129L1287.87 -74.8764C1282.92 -98.8636 1279.63 -123.124 1277.99 -147.476L1848.52 -718.009ZM1651.86 -694.72C1685.87 -705.367 1720.72 -712.544 1755.87 -716.251L1279.75 -240.127C1283.46 -275.279 1290.63 -310.134 1301.28 -344.138L1651.86 -694.72Z" fill="#4044ED"/>
<path d="M1368.37 802.539L1648.91 881.295L1440.43 1084.88L1368.37 802.539Z" fill="#4044ED" fill-opacity="0.5"/>
<path d="M1473.5 896.606L1754.05 975.363L1545.57 1178.95L1473.5 896.606Z" fill="#4044ED" fill-opacity="0.5"/>
<path d="M1582.6 989.432L1863.15 1068.19L1654.67 1271.77L1582.6 989.432Z" fill="#4044ED" fill-opacity="0.5"/>
</g>
<defs>
<clipPath id="clip0_1_4">
<rect width="1728" height="1117" fill="white"/>
</clipPath>
</defs>
</svg>
