<svg width="1728" height="1117" viewBox="0 0 1728 1117" fill="none" xmlns="http://www.w3.org/2000/svg">
<g clip-path="url(#clip0_102_76)">
<rect width="1728" height="1117" fill="#27262C"/>
<path d="M1502.37 905.539L1782.91 984.295L1574.43 1187.88L1502.37 905.539Z" fill="#4044ED" fill-opacity="0.5"/>
<path d="M1372.37 797.539L1652.91 876.295L1444.43 1079.88L1372.37 797.539Z" fill="#4044ED" fill-opacity="0.5"/>
<path d="M178.845 138.274C153.402 190.979 118.821 240.379 75.1001 284.101C31.3789 327.822 -18.0217 362.402 -70.7255 387.845L178.845 138.274ZM231.936 -88.1882C231.57 -57.5736 228.593 -26.9854 223.01 3.21639L-205.784 432.01C-235.986 437.594 -266.574 440.571 -297.189 440.936L231.936 -88.1882ZM211.616 -241.241C217.955 -218.886 222.812 -196.2 226.19 -173.337L-382.337 435.191C-405.2 431.813 -427.886 426.955 -450.241 420.616L211.616 -241.241ZM160.024 -363.021C170.362 -345.188 179.588 -326.887 187.698 -308.218L-517.219 396.699C-535.888 388.589 -554.189 379.362 -572.021 369.024L160.024 -363.021ZM85.8848 -462.255C99.4373 -447.911 112.047 -433.002 123.714 -417.606L-626.606 332.714C-642.002 321.047 -656.911 308.437 -671.255 294.885L85.8848 -462.255ZM-8.22322 -541.52C8.01671 -530.761 23.7989 -519.023 39.0411 -506.306L-715.307 248.042C-728.023 232.8 -739.762 217.017 -750.521 200.777L-8.22322 -541.52ZM-123.837 -599.279C-104.16 -592.284 -84.81 -584.105 -65.8987 -574.738L-783.739 143.102C-793.106 124.191 -801.285 104.841 -808.28 85.1641L-123.837 -599.279ZM-267.478 -629.01C-243.127 -627.373 -218.866 -624.081 -194.879 -619.131L-828.131 14.122C-833.082 -9.86512 -836.374 -34.126 -838.011 -58.4773L-267.478 -629.01ZM-464.139 -605.721C-430.136 -616.369 -395.281 -623.546 -360.129 -627.253L-836.254 -151.128C-832.546 -186.281 -825.369 -221.136 -814.721 -255.139L-464.139 -605.721Z" fill="#4044ED"/>
<path d="M1859.05 -114.806L1740.83 308.942L1432.62 -6.68282L1859.05 -114.806Z" fill="#4044ED" fill-opacity="0.5"/>
</g>
<defs>
<clipPath id="clip0_102_76">
<rect width="1728" height="1117" fill="white"/>
</clipPath>
</defs>
</svg>
